<svg xmlns="http://www.w3.org/2000/svg" viewBox="142.5 388.3 2715 886.2" width="2715" height="886.2">
<path fill-rule="nonzero" fill="#8B9F8B" d="M 1598.199219 736.007812 C 1601.597656 741.375 1613.1875 754.386719 1633.925781 771.414062 C 1653.644531 787.605469 1685.859375 810.851562 1727.355469 829.652344 C 1738.472656 834.691406 1749.253906 838.957031 1759.683594 843.082031 C 1766.28125 845.691406 1772.480469 848.140625 1778.128906 850.542969 C 1772.550781 845.398438 1766.761719 839.582031 1761 833.691406 C 1758.671875 831.304688 1756.832031 829.417969 1755.601562 828.25 C 1718.246094 792.839844 1678.929688 769.738281 1652.523438 756.589844 C 1624.148438 742.460938 1605 736.859375 1598.199219 736.007812 Z M 1486.089844 638.699219 C 1484.203125 648.191406 1482.933594 654.230469 1482.0625 658.378906 C 1480.332031 666.652344 1480.191406 667.328125 1479.761719 673.019531 C 1474.894531 738.414062 1486.519531 786.183594 1502.621094 852.296875 C 1508.257812 875.488281 1511.519531 883.820312 1513.277344 886.683594 C 1514.25 883.894531 1515.75 876.164062 1516.417969 854.75 C 1518.296875 794.882812 1519.777344 747.59375 1501.191406 683.296875 C 1495.582031 663.875 1490.652344 649.917969 1486.089844 638.699219 Z M 1407.519531 735.855469 C 1407.371094 735.855469 1407.210938 735.859375 1407.039062 735.867188 C 1402.140625 736.070312 1396.03125 739.746094 1391.113281 742.703125 C 1390.320312 743.175781 1389.570312 743.628906 1388.851562 744.050781 C 1369.722656 755.261719 1352.117188 770.691406 1337.9375 788.667969 C 1315.871094 816.632812 1302.890625 852.835938 1298.261719 899.359375 C 1297.730469 904.667969 1297.472656 910.085938 1297.332031 915.648438 L 1370.363281 804.109375 C 1381.914062 786.472656 1393.851562 768.246094 1404.492188 749.710938 L 1404.929688 748.960938 C 1408.988281 741.929688 1410.640625 737.695312 1409.851562 736.378906 C 1409.710938 736.15625 1408.980469 735.855469 1407.519531 735.855469 Z M 1613.167969 844.621094 C 1611.359375 844.621094 1610.308594 846.101562 1610.066406 846.484375 C 1609.738281 846.992188 1608.277344 849.621094 1611.046875 851.664062 C 1648.332031 879.191406 1682.730469 909.757812 1713.527344 942.699219 C 1703.769531 923.355469 1690.71875 908.40625 1681.320312 897.625 C 1662.960938 876.578125 1640.695312 858.929688 1615.136719 845.167969 C 1614.40625 844.773438 1613.746094 844.621094 1613.167969 844.621094 Z M 1446.707031 858.101562 C 1425.886719 864.988281 1407.179688 878.167969 1393.730469 895.488281 C 1374.652344 920.070312 1368.113281 949.761719 1366.316406 973.136719 C 1389.160156 935 1416.089844 899.039062 1443.9375 862.867188 C 1445.386719 860.984375 1446.304688 859.390625 1446.707031 858.101562 Z M 1264.707031 991.414062 C 1269.84375 994.519531 1274.746094 995.589844 1278.425781 994.347656 C 1281.773438 993.214844 1284.242188 990.164062 1285.761719 985.277344 C 1290.460938 970.113281 1291.003906 952.957031 1291.132812 936.070312 L 1290.113281 937.628906 C 1289.152344 939.082031 1288.171875 940.566406 1287.171875 942.085938 C 1277.585938 956.546875 1266.015625 974.003906 1264.707031 991.414062 Z M 1330.75 1070.234375 C 1338.765625 1076.101562 1346.898438 1081.804688 1355.09375 1087.300781 C 1360.234375 1090.761719 1364.953125 1092.363281 1368.023438 1091.691406 C 1369.523438 1091.363281 1370.652344 1090.511719 1371.582031 1089.011719 C 1372.644531 1087.28125 1372.984375 1085.09375 1372.515625 1082.863281 C 1366.972656 1056.234375 1360.785156 1026.519531 1359.855469 996.488281 C 1352.894531 1009.210938 1346.457031 1022.199219 1340.628906 1035.539062 C 1335.90625 1046.347656 1331.429688 1058.386719 1330.75 1070.234375 Z M 1483.210938 1159.382812 C 1490.679688 1161.585938 1497.949219 1164.683594 1504.917969 1168.882812 C 1510.898438 1172.472656 1516.429688 1176.671875 1521.347656 1181.363281 C 1527.128906 1186.851562 1532.214844 1193.0625 1537.136719 1199.058594 C 1540.375 1203.011719 1543.683594 1207.050781 1547.183594 1210.867188 C 1545.554688 1190.960938 1527.746094 1173.78125 1509.089844 1166.292969 C 1500.820312 1162.972656 1492.089844 1160.875 1483.210938 1159.382812 Z M 1613.878906 1151.914062 C 1607.9375 1155.09375 1602.578125 1159.09375 1597.871094 1164.003906 C 1576.421875 1186.351562 1571.761719 1223.527344 1573.503906 1230.488281 C 1574.78125 1229.855469 1578.429688 1226.988281 1585.519531 1214.007812 C 1590.789062 1204.371094 1595.667969 1193.351562 1598.007812 1188.050781 C 1598.589844 1186.742188 1599.019531 1185.761719 1599.277344 1185.222656 C 1604.789062 1173.464844 1609.667969 1162.542969 1613.878906 1151.914062 Z M 2199.195312 1274.320312 C 2157.796875 1274.320312 2044.109375 1240.707031 1820.625 1174.613281 L 1813.257812 1172.433594 C 1744.894531 1152.175781 1668.890625 1129.65625 1621.707031 1148.285156 C 1616.96875 1160.90625 1611.277344 1173.753906 1604.707031 1187.761719 C 1604.46875 1188.28125 1604.046875 1189.222656 1603.5 1190.480469 C 1585.03125 1232.207031 1577.023438 1238.9375 1570.671875 1236.195312 C 1568.371094 1235.195312 1567.8125 1232.417969 1567.621094 1231.507812 C 1565.464844 1220.796875 1571.863281 1182.433594 1593.539062 1159.84375 C 1600.25 1152.84375 1608.136719 1147.574219 1616.996094 1143.746094 C 1620.117188 1135.226562 1622.777344 1126.796875 1624.964844 1118.167969 C 1634.503906 1080.421875 1631.664062 1044.957031 1616.96875 1018.300781 C 1609.347656 1004.492188 1598.097656 991.996094 1583.511719 981.164062 C 1580.582031 978.984375 1579.929688 975.199219 1581.972656 972.160156 C 1584.011719 969.125 1587.761719 968.292969 1590.878906 970.183594 C 1622.605469 989.351562 1688.609375 1029.238281 1664.980469 1088.320312 C 1663.800781 1091.25 1662.390625 1094.082031 1661.03125 1096.8125 C 1659.933594 1099.019531 1658.863281 1101.152344 1657.933594 1103.300781 C 1677.960938 1100.890625 1701.726562 1071.984375 1716.714844 1046.578125 C 1728.855469 1025.980469 1727.695312 1005.429688 1727.136719 995.554688 C 1727.085938 994.621094 1727.035156 993.78125 1727.003906 993.039062 C 1726.484375 980.796875 1724.097656 969.566406 1720.574219 959.324219 C 1687.199219 921.855469 1649.152344 887.257812 1607.476562 856.488281 C 1602.628906 852.902344 1602.558594 847.125 1605 843.269531 C 1607.4375 839.429688 1612.679688 837.027344 1617.988281 839.886719 C 1644.175781 853.992188 1667.011719 872.089844 1685.839844 893.683594 C 1697.96875 907.585938 1715.964844 928.214844 1725.886719 956.269531 C 1729.113281 959.863281 1736.722656 967.785156 1744.652344 974.484375 C 1758.730469 986.386719 1762.613281 985.035156 1763.011719 984.839844 C 1763.832031 984.4375 1764.851562 981.800781 1763.492188 974.464844 C 1761.292969 962.613281 1758.550781 947.867188 1762.121094 934.15625 C 1766 919.257812 1776.738281 908.226562 1784.480469 901.222656 C 1786.628906 899.28125 1789.277344 897.480469 1792.089844 895.574219 C 1798.90625 890.949219 1805.96875 886.160156 1805.847656 879.398438 C 1805.65625 867.71875 1784.390625 859.308594 1757.480469 848.660156 C 1747.472656 844.703125 1736.132812 840.21875 1724.875 835.117188 C 1648.664062 800.585938 1594.628906 746.5 1591.421875 735.640625 C 1590.988281 734.191406 1591.109375 732.9375 1591.78125 731.902344 C 1592.46875 730.828125 1593.628906 730.183594 1595.238281 729.988281 C 1609.269531 728.273438 1692.1875 759.867188 1759.730469 823.898438 C 1761.042969 825.144531 1762.921875 827.066406 1765.300781 829.5 C 1771.441406 835.796875 1780.730469 845.308594 1789.617188 852.582031 C 1802.925781 863.480469 1807.636719 863.078125 1809.046875 862.402344 C 1811.296875 861.3125 1812.046875 855.886719 1811.035156 847.886719 L 1802.136719 777.125 C 1800.90625 767.359375 1799.636719 757.261719 1795.71875 748.246094 C 1787.097656 728.4375 1765.839844 723.4375 1745.292969 718.597656 L 1743.652344 718.214844 C 1714.605469 711.355469 1685.828125 702.707031 1658.132812 692.503906 C 1655.722656 691.613281 1653.113281 690.730469 1650.363281 689.796875 C 1637.476562 685.425781 1622.867188 680.46875 1614.367188 670.714844 C 1613.289062 669.472656 1613.40625 667.589844 1614.636719 666.5 C 1638.984375 644.921875 1704.1875 657.769531 1717.007812 660.558594 C 1752.8125 668.363281 1785.320312 685.195312 1810.996094 709.238281 C 1817.984375 715.773438 1822.433594 717.320312 1825.882812 714.414062 C 1827.644531 712.921875 1828.664062 710.613281 1828.675781 708.078125 C 1828.746094 673.71875 1826.203125 639.0625 1821.105469 605.074219 C 1818.617188 588.457031 1814.257812 578.777344 1807.785156 575.488281 C 1799.296875 571.15625 1786.847656 577.636719 1772.441406 585.148438 C 1764.863281 589.085938 1757.023438 593.164062 1748.875 596.117188 C 1710.335938 610.082031 1662.882812 607.8125 1642.734375 596.933594 C 1637.464844 594.085938 1634.335938 590.726562 1633.445312 586.976562 C 1632.277344 581.996094 1634.996094 575.636719 1641.335938 568.589844 C 1651.8125 556.917969 1670.261719 545.019531 1690.679688 536.773438 C 1707.949219 529.792969 1734.503906 522.222656 1762.953125 525.8125 C 1774.878906 527.324219 1785.277344 530.582031 1793.636719 533.203125 C 1801.917969 535.792969 1809.726562 538.242188 1811.375 536.082031 C 1813.667969 533.082031 1815.296875 522.125 1781.140625 485.425781 C 1760.910156 463.710938 1737.40625 442.960938 1730.054688 436.800781 C 1706.425781 417.015625 1669.183594 393.546875 1625.988281 394.335938 C 1591.828125 394.9375 1557.863281 411.546875 1535.125 438.773438 C 1519.457031 457.539062 1516.699219 472.757812 1503.449219 545.902344 C 1501.820312 554.871094 1500.039062 564.699219 1498.058594 575.496094 C 1493.8125 598.695312 1490.589844 615.644531 1488.152344 628.203125 C 1493.710938 640.910156 1499.871094 657.140625 1506.960938 681.628906 C 1525.808594 746.839844 1524.308594 794.539062 1522.417969 854.933594 C 1521.40625 887.082031 1518.808594 893.21875 1514.039062 893.722656 C 1509.089844 894.257812 1505.230469 888.398438 1496.789062 853.71875 C 1480.5625 787.070312 1468.832031 738.914062 1473.78125 672.574219 C 1474.234375 666.488281 1474.460938 665.425781 1476.191406 657.148438 C 1477.300781 651.871094 1479.042969 643.53125 1481.910156 628.882812 C 1479.191406 622.78125 1476.582031 617.414062 1474.003906 612.09375 C 1466.511719 596.664062 1459.433594 582.097656 1451.554688 552.449219 C 1448.855469 542.292969 1446.734375 531.851562 1444.6875 521.761719 C 1441.757812 507.363281 1438.726562 492.476562 1434.007812 478.417969 C 1427.519531 459.058594 1414.699219 433.363281 1390.5 420.835938 C 1356.65625 403.304688 1315.828125 419.195312 1294.511719 430.222656 C 1227.070312 465.121094 1177.046875 530.222656 1160.695312 604.382812 C 1158.078125 616.261719 1155.835938 631.042969 1160.125 644.082031 C 1171.796875 620.574219 1190.703125 599.773438 1213.949219 585.007812 C 1239.226562 568.957031 1268.785156 560.578125 1297.140625 561.4375 C 1312.421875 561.890625 1321.210938 568.148438 1321.257812 578.585938 C 1321.269531 580.925781 1320.769531 583.335938 1319.75 585.945312 C 1310.070312 610.59375 1286.902344 629.691406 1260.734375 634.589844 C 1250.746094 636.472656 1240.449219 636.390625 1230.488281 636.320312 C 1217.179688 636.222656 1204.613281 636.132812 1192.722656 640.289062 C 1160.707031 651.5 1146.96875 689.941406 1144.9375 719.449219 C 1142.570312 753.761719 1150.429688 789.238281 1167.066406 819.34375 C 1167.996094 821.039062 1170.003906 824.277344 1172.40625 825.753906 C 1168.136719 804.511719 1165.296875 783.828125 1171.503906 764.226562 C 1181.644531 732.214844 1213.53125 712.738281 1236.636719 700.875 C 1278.742188 679.242188 1323.75 664.140625 1370.382812 655.980469 C 1377.882812 654.667969 1385.621094 654.078125 1391.480469 658.640625 C 1392.339844 659.296875 1392.773438 660.367188 1392.613281 661.4375 C 1392.460938 662.507812 1391.742188 663.410156 1390.730469 663.800781 C 1342.277344 682.628906 1292.183594 702.097656 1251.527344 735.890625 C 1206.613281 773.222656 1182.363281 823.578125 1186.664062 870.59375 C 1188.992188 896.09375 1199.84375 922.378906 1218.039062 946.609375 C 1229.710938 962.15625 1243.507812 975.890625 1259.097656 987.480469 C 1261.597656 969.820312 1272.785156 952.929688 1282.164062 938.769531 C 1283.164062 937.261719 1284.144531 935.785156 1285.09375 934.339844 L 1291.191406 925.019531 C 1291.261719 916.179688 1291.441406 907.226562 1292.292969 898.761719 C 1297.042969 851.070312 1310.429688 813.84375 1333.226562 784.953125 C 1347.867188 766.394531 1366.054688 750.457031 1385.824219 738.875 C 1386.523438 738.464844 1387.253906 738.023438 1388.023438 737.5625 C 1393.523438 734.253906 1400.359375 730.140625 1406.789062 729.871094 C 1410.757812 729.714844 1413.507812 730.855469 1414.980469 733.273438 C 1418.019531 738.289062 1413.449219 746.191406 1410.121094 751.960938 L 1409.699219 752.699219 C 1398.960938 771.386719 1386.980469 789.6875 1375.394531 807.386719 L 1297.183594 926.828125 C 1297.171875 928.074219 1297.171875 929.324219 1297.160156 930.585938 C 1297.0625 949.660156 1296.972656 969.382812 1291.492188 987.050781 C 1288.851562 995.558594 1283.972656 998.804688 1280.34375 1000.03125 C 1275.753906 1001.582031 1270.363281 1000.941406 1264.746094 998.257812 C 1264.824219 999.097656 1264.933594 999.941406 1265.066406 1000.78125 C 1268.355469 1021.25 1290.023438 1038.566406 1305.851562 1051.207031 C 1312.160156 1056.246094 1318.578125 1061.207031 1325.089844 1066.054688 C 1326.429688 1054.625 1330.679688 1043.335938 1335.128906 1033.136719 C 1342.46875 1016.351562 1350.757812 1000.132812 1359.773438 984.316406 C 1359.785156 983.890625 1359.796875 983.46875 1359.804688 983.042969 C 1360.457031 957.738281 1366.042969 921.367188 1388.992188 891.808594 C 1403.941406 872.5625 1425.039062 858.167969 1448.414062 851.28125 C 1449.753906 850.882812 1451.195312 851.472656 1451.886719 852.699219 C 1455.003906 858.3125 1450.253906 864.496094 1448.6875 866.527344 C 1418.609375 905.609375 1389.601562 944.433594 1365.753906 985.960938 C 1365.324219 1018.910156 1372.253906 1052.1875 1378.394531 1081.644531 C 1379.164062 1085.382812 1378.5625 1089.113281 1376.691406 1092.152344 C 1374.902344 1095.0625 1372.414062 1096.871094 1369.292969 1097.550781 C 1363.234375 1098.871094 1356.40625 1095.410156 1351.746094 1092.292969 C 1344.726562 1087.574219 1337.757812 1082.710938 1330.859375 1077.734375 C 1331.097656 1080.324219 1331.566406 1082.871094 1332.289062 1085.390625 C 1335.757812 1097.472656 1344.945312 1108.421875 1360.394531 1118.847656 C 1382.371094 1133.6875 1408.917969 1143.464844 1439.285156 1147.925781 C 1445.886719 1148.894531 1452.695312 1149.617188 1459.285156 1150.304688 C 1476.691406 1152.144531 1494.691406 1154.046875 1511.320312 1160.722656 C 1533.515625 1169.632812 1556.042969 1191.5 1553.054688 1218.457031 C 1552.925781 1219.597656 1552.164062 1220.558594 1551.09375 1220.949219 C 1550.023438 1221.335938 1548.824219 1221.085938 1547.996094 1220.296875 C 1542.335938 1214.867188 1537.335938 1208.769531 1532.496094 1202.871094 C 1527.695312 1197.011719 1522.726562 1190.949219 1517.21875 1185.703125 C 1512.609375 1181.320312 1507.429688 1177.390625 1501.828125 1174.023438 C 1463.8125 1151.164062 1417.558594 1162.175781 1373.445312 1175.414062 C 1350.335938 1182.34375 1327.390625 1191.089844 1305.199219 1199.550781 C 1285.953125 1206.878906 1266.046875 1214.46875 1246.058594 1220.867188 C 1132.328125 1257.285156 1048.078125 1224.628906 941.421875 1183.28125 C 875.074219 1157.554688 799.875 1128.40625 703.304688 1110.441406 C 530.238281 1078.253906 342.953125 1093.703125 146.65625 1156.363281 C 145.082031 1156.875 143.390625 1156.003906 142.886719 1154.425781 C 142.382812 1152.84375 143.253906 1151.15625 144.832031 1150.65625 C 256.132812 1115.121094 365.40625 1094.480469 469.613281 1089.300781 C 549.667969 1085.324219 628.660156 1090.453125 704.402344 1104.550781 C 801.523438 1122.609375 877 1151.875 943.589844 1177.683594 C 1049.148438 1218.597656 1132.519531 1250.925781 1244.226562 1215.160156 C 1264.066406 1208.808594 1283.894531 1201.25 1303.0625 1193.941406 C 1325.347656 1185.453125 1348.40625 1176.664062 1371.722656 1169.664062 C 1395.8125 1162.445312 1421.839844 1155.566406 1447.085938 1154.996094 C 1444.1875 1154.65625 1441.285156 1154.285156 1438.417969 1153.855469 C 1407.148438 1149.277344 1379.761719 1139.167969 1357.035156 1123.816406 C 1340.378906 1112.570312 1330.398438 1100.539062 1326.519531 1087.050781 C 1325.207031 1082.484375 1324.648438 1077.84375 1324.648438 1073.203125 C 1317.011719 1067.5625 1309.480469 1061.785156 1302.101562 1055.894531 C 1285.511719 1042.636719 1262.796875 1024.488281 1259.144531 1001.730469 C 1258.757812 999.324219 1258.574219 996.925781 1258.585938 994.535156 C 1241.269531 982.140625 1226.019531 967.234375 1213.242188 950.210938 C 1194.375 925.09375 1183.113281 897.75 1180.683594 871.140625 C 1178.375 845.886719 1183.996094 819.144531 1196.933594 793.796875 C 1208.722656 770.695312 1226.28125 749.074219 1247.6875 731.277344 C 1287.011719 698.589844 1334.597656 679.222656 1381.171875 661.078125 C 1378.03125 660.839844 1374.613281 661.328125 1371.414062 661.886719 C 1325.378906 669.945312 1280.953125 684.855469 1239.378906 706.210938 C 1217.230469 717.585938 1186.695312 736.164062 1177.226562 766.039062 C 1171.035156 785.558594 1174.605469 806.851562 1179.144531 828.769531 C 1179.476562 830.378906 1178.453125 831.957031 1176.84375 832.308594 C 1171.394531 833.496094 1166.054688 829.929688 1161.804688 822.246094 C 1144.628906 791.140625 1136.507812 754.488281 1138.949219 719.035156 C 1141.21875 686.207031 1156.007812 646.789062 1190.742188 634.632812 C 1203.613281 630.121094 1217.300781 630.230469 1230.539062 630.320312 C 1240.207031 630.390625 1250.207031 630.460938 1259.636719 628.703125 C 1283.8125 624.164062 1305.222656 606.523438 1314.160156 583.746094 C 1314.910156 581.867188 1315.261719 580.1875 1315.261719 578.617188 C 1315.210938 569.359375 1303.78125 567.636719 1296.960938 567.429688 C 1240.457031 565.75 1185.253906 600.785156 1162.746094 652.660156 C 1162.285156 653.71875 1161.257812 654.429688 1160.105469 654.46875 C 1158.925781 654.507812 1157.878906 653.890625 1157.335938 652.859375 C 1148.929688 636.820312 1151.585938 617.84375 1154.835938 603.085938 C 1163.007812 566.019531 1179.933594 530.023438 1203.773438 498.996094 C 1227.621094 467.960938 1258.035156 442.34375 1291.761719 424.894531 C 1314.109375 413.335938 1357.015625 396.738281 1393.261719 415.503906 C 1419.238281 428.964844 1432.855469 456.109375 1439.695312 476.507812 C 1444.535156 490.925781 1447.59375 505.996094 1450.566406 520.5625 C 1452.59375 530.574219 1454.703125 540.921875 1457.355469 550.910156 C 1465.082031 579.996094 1472.042969 594.316406 1479.402344 609.472656 C 1480.851562 612.453125 1482.332031 615.511719 1483.863281 618.761719 C 1486.0625 607.3125 1488.78125 592.835938 1492.160156 574.417969 C 1494.140625 563.617188 1495.921875 553.789062 1497.539062 544.820312 C 1511.027344 470.398438 1513.828125 454.910156 1530.527344 434.933594 C 1554.363281 406.386719 1590.011719 388.96875 1625.886719 388.339844 C 1670.890625 387.527344 1709.496094 411.753906 1733.90625 432.203125 C 1741.34375 438.433594 1765.101562 459.390625 1785.527344 481.339844 C 1813.316406 511.195312 1823.335938 530.292969 1816.144531 539.722656 C 1811.957031 545.222656 1803.515625 542.582031 1791.847656 538.921875 C 1783.71875 536.371094 1773.601562 533.203125 1762.203125 531.761719 C 1715.476562 525.875 1664.570312 551.699219 1645.792969 572.597656 C 1641.042969 577.886719 1638.613281 582.746094 1639.285156 585.597656 C 1639.753906 587.554688 1641.996094 589.707031 1645.59375 591.65625 C 1661.671875 600.34375 1706.96875 604.925781 1746.824219 590.476562 C 1754.601562 587.65625 1762.261719 583.667969 1769.671875 579.816406 C 1784.890625 571.898438 1799.277344 564.417969 1810.515625 570.136719 C 1818.945312 574.4375 1824.203125 585.257812 1827.042969 604.183594 C 1832.183594 638.472656 1834.753906 673.429688 1834.671875 708.089844 C 1834.664062 712.394531 1832.863281 716.367188 1829.746094 719 C 1820.753906 726.585938 1810.6875 717.164062 1806.898438 713.617188 C 1782 690.3125 1750.472656 673.992188 1715.726562 666.421875 C 1689.46875 660.699219 1641.285156 655.179688 1621.117188 669.046875 C 1628.867188 676.167969 1641.246094 680.371094 1652.292969 684.117188 C 1655.082031 685.0625 1657.722656 685.957031 1660.203125 686.871094 C 1687.679688 696.992188 1716.214844 705.574219 1745.035156 712.375 L 1746.671875 712.761719 C 1767.632812 717.695312 1791.398438 723.289062 1801.21875 745.851562 C 1805.488281 755.660156 1806.808594 766.191406 1808.085938 776.378906 L 1816.984375 847.140625 C 1818.433594 858.617188 1816.6875 865.375 1811.644531 867.804688 C 1810.476562 868.371094 1809.1875 868.652344 1807.808594 868.679688 C 1810.367188 871.882812 1811.785156 875.371094 1811.847656 879.300781 C 1812.015625 889.304688 1802.835938 895.535156 1795.457031 900.539062 C 1792.828125 902.324219 1790.339844 904.011719 1788.507812 905.671875 C 1776.949219 916.125 1770.601562 925.375 1767.921875 935.667969 C 1764.691406 948.085938 1767.191406 961.515625 1769.390625 973.371094 C 1770.019531 976.777344 1771.949219 987.144531 1765.652344 990.230469 C 1760.613281 992.691406 1752.710938 989.148438 1740.785156 979.066406 C 1736.824219 975.722656 1732.945312 972.082031 1729.613281 968.792969 C 1731.433594 976.320312 1732.636719 984.3125 1732.996094 992.785156 C 1733.023438 993.5 1733.074219 994.3125 1733.125 995.21875 C 1733.714844 1005.679688 1734.945312 1027.457031 1721.875 1049.617188 C 1715.898438 1059.773438 1685.058594 1109.460938 1655.28125 1109.460938 C 1654.625 1109.460938 1653.964844 1109.441406 1653.292969 1109.390625 C 1652.375 1109.320312 1651.542969 1108.828125 1651.023438 1108.058594 C 1650.515625 1107.289062 1650.382812 1106.332031 1650.671875 1105.449219 C 1652.003906 1101.460938 1653.863281 1097.742188 1655.664062 1094.132812 C 1657.03125 1091.390625 1658.332031 1088.792969 1659.414062 1086.09375 C 1678.519531 1038.328125 1636.273438 1004.621094 1587.78125 975.316406 C 1587.570312 975.191406 1587.28125 975.015625 1586.949219 975.503906 C 1586.621094 975.996094 1586.890625 976.199219 1587.089844 976.347656 C 1602.367188 987.695312 1614.1875 1000.832031 1622.226562 1015.398438 C 1637.65625 1043.398438 1640.695312 1080.414062 1630.777344 1119.640625 C 1628.957031 1126.847656 1626.816406 1133.898438 1624.355469 1140.964844 C 1673.640625 1124.796875 1747.902344 1146.816406 1814.964844 1166.683594 L 1822.324219 1168.863281 C 2045.28125 1234.785156 2158.667969 1268.324219 2199.125 1268.324219 C 2199.675781 1268.324219 2200.203125 1268.3125 2200.714844 1268.300781 C 2297.0625 1266.042969 2361.957031 1225.6875 2424.710938 1186.671875 C 2493.601562 1143.835938 2564.816406 1099.539062 2677.691406 1104.242188 C 2737.824219 1106.738281 2797.667969 1122.410156 2855.574219 1150.816406 C 2857.0625 1151.546875 2857.683594 1153.34375 2856.953125 1154.835938 C 2856.222656 1156.316406 2854.421875 1156.933594 2852.933594 1156.203125 C 2795.78125 1128.167969 2736.734375 1112.699219 2677.441406 1110.230469 C 2566.425781 1105.609375 2495.992188 1149.40625 2427.878906 1191.761719 C 2364.4375 1231.207031 2298.832031 1272.003906 2200.863281 1274.300781 C 2200.3125 1274.3125 2199.765625 1274.320312 2199.195312 1274.320312 "/>
</svg>
